<?xml version="1.0" encoding="utf-8"?>
<!-- Generator: Adobe Illustrator 17.0.0, SVG Export Plug-In . SVG Version: 6.00 Build 0)  -->
<!DOCTYPE svg PUBLIC "-//W3C//DTD SVG 1.1//EN" "http://www.w3.org/Graphics/SVG/1.1/DTD/svg11.dtd">
<svg version="1.1" id="Linkedin" xmlns="http://www.w3.org/2000/svg" xmlns:xlink="http://www.w3.org/1999/xlink" x="0px" y="0px"
	 width="31.366px" height="31.309px" viewBox="34.762 629.486 31.366 31.309" enable-background="new 34.762 629.486 31.366 31.309"
	 xml:space="preserve">
<g id="github-github">
	<path fill="#FFFFFF" d="M50.445,629.869c-8.646,0-15.657,7.01-15.657,15.657c0,6.918,4.486,12.787,10.708,14.857
		c0.782,0.145,1.07-0.34,1.07-0.753c0-0.373-0.015-1.607-0.021-2.915c-4.356,0.947-5.275-1.847-5.275-1.847
		c-0.712-1.81-1.739-2.291-1.739-2.291c-1.421-0.972,0.108-0.952,0.108-0.952c1.572,0.111,2.4,1.614,2.4,1.614
		c1.396,2.393,3.663,1.701,4.556,1.301c0.141-1.012,0.546-1.703,0.994-2.094c-3.477-0.396-7.134-1.738-7.134-7.738
		c0-1.709,0.612-3.106,1.613-4.203c-0.163-0.395-0.699-1.987,0.152-4.144c0,0,1.314-0.42,4.306,1.605
		c1.249-0.347,2.589-0.521,3.919-0.527c1.331,0.006,2.671,0.18,3.922,0.527c2.989-2.026,4.302-1.605,4.302-1.605
		c0.852,2.157,0.316,3.749,0.154,4.144c1.004,1.096,1.611,2.493,1.611,4.203c0,6.014-3.663,7.338-7.149,7.726
		c0.561,0.486,1.062,1.439,1.062,2.899c0,2.095-0.018,3.781-0.018,4.297c0,0.417,0.282,0.905,1.076,0.751
		c6.218-2.073,10.699-7.94,10.699-14.855C66.103,636.879,59.092,629.869,50.445,629.869z"/>
	<path fill="#FFFFFF" d="M40.718,652.35c-0.035,0.078-0.157,0.101-0.269,0.048c-0.113-0.051-0.177-0.157-0.14-0.236
		c0.034-0.08,0.156-0.102,0.27-0.049C40.692,652.165,40.757,652.272,40.718,652.35L40.718,652.35z"/>
	<path fill="#FFFFFF" d="M41.352,653.057c-0.075,0.069-0.221,0.037-0.32-0.073c-0.103-0.109-0.122-0.255-0.046-0.326
		c0.077-0.069,0.218-0.037,0.321,0.073C41.41,652.842,41.43,652.987,41.352,653.057L41.352,653.057z"/>
	<path fill="#FFFFFF" d="M41.969,653.959c-0.096,0.067-0.253,0.004-0.35-0.135c-0.096-0.139-0.096-0.306,0.002-0.373
		c0.097-0.067,0.252-0.007,0.35,0.131C42.067,653.724,42.067,653.891,41.969,653.959L41.969,653.959z"/>
	<path fill="#FFFFFF" d="M42.815,654.83c-0.086,0.095-0.268,0.069-0.402-0.06c-0.137-0.126-0.175-0.305-0.089-0.4
		c0.087-0.095,0.271-0.068,0.406,0.061C42.865,654.556,42.907,654.737,42.815,654.83L42.815,654.83z"/>
	<path fill="#FFFFFF" d="M43.982,655.336c-0.038,0.122-0.214,0.178-0.391,0.126c-0.177-0.054-0.293-0.197-0.257-0.321
		c0.037-0.124,0.214-0.182,0.392-0.126C43.903,655.069,44.018,655.211,43.982,655.336L43.982,655.336z"/>
	<path fill="#FFFFFF" d="M45.263,655.43c0.004,0.129-0.146,0.236-0.332,0.239c-0.187,0.004-0.339-0.101-0.34-0.228
		c0-0.13,0.147-0.236,0.334-0.239C45.111,655.198,45.263,655.302,45.263,655.43L45.263,655.43z"/>
	<path fill="#FFFFFF" d="M46.456,655.227c0.022,0.126-0.107,0.256-0.292,0.29c-0.182,0.033-0.35-0.044-0.373-0.169
		c-0.023-0.129,0.109-0.259,0.291-0.292C46.266,655.023,46.432,655.099,46.456,655.227L46.456,655.227z"/>
</g>
</svg>
