<?xml version="1.0" encoding="utf-8"?>
<!-- Generator: Adobe Illustrator 17.0.0, SVG Export Plug-In . SVG Version: 6.00 Build 0)  -->
<!DOCTYPE svg PUBLIC "-//W3C//DTD SVG 1.1//EN" "http://www.w3.org/Graphics/SVG/1.1/DTD/svg11.dtd">
<svg version="1.1" id="Linkedin" xmlns="http://www.w3.org/2000/svg" xmlns:xlink="http://www.w3.org/1999/xlink" x="0px" y="0px"
	 width="31.366px" height="31.309px" viewBox="0 0 31.366 31.309" enable-background="new 0 0 31.366 31.309" xml:space="preserve">
<path fill="#222222" d="M15.682,2.16c-7.64,0-13.835,6.194-13.835,13.835c0,6.113,3.964,11.299,9.462,13.128
	c0.691,0.128,0.945-0.3,0.945-0.666c0-0.33-0.013-1.42-0.019-2.576c-3.849,0.837-4.661-1.632-4.661-1.632
	c-0.629-1.599-1.536-2.024-1.536-2.024c-1.255-0.859,0.095-0.841,0.095-0.841c1.389,0.098,2.121,1.426,2.121,1.426
	c1.234,2.115,3.237,1.503,4.026,1.15c0.124-0.894,0.483-1.505,0.878-1.85c-3.073-0.349-6.304-1.536-6.304-6.837
	c0-1.51,0.541-2.745,1.426-3.714C8.136,11.21,7.662,9.803,8.414,7.897c0,0,1.161-0.372,3.805,1.418
	c1.104-0.307,2.288-0.46,3.463-0.466c1.176,0.005,2.36,0.159,3.466,0.466c2.641-1.79,3.801-1.418,3.801-1.418
	c0.753,1.906,0.279,3.313,0.136,3.662c0.887,0.969,1.424,2.203,1.424,3.714c0,5.314-3.237,6.484-6.317,6.827
	c0.496,0.429,0.938,1.271,0.938,2.562c0,1.851-0.016,3.341-0.016,3.797c0,0.368,0.249,0.8,0.95,0.664
	c5.494-1.831,9.454-7.016,9.454-13.127C29.518,8.354,23.323,2.16,15.682,2.16z"/>
</svg>
