<?xml version="1.0" encoding="utf-8"?>
<!-- Generator: Adobe Illustrator 17.0.0, SVG Export Plug-In . SVG Version: 6.00 Build 0)  -->
<!DOCTYPE svg PUBLIC "-//W3C//DTD SVG 1.1//EN" "http://www.w3.org/Graphics/SVG/1.1/DTD/svg11.dtd">
<svg version="1.1" id="Linkedin" xmlns="http://www.w3.org/2000/svg" xmlns:xlink="http://www.w3.org/1999/xlink" x="0px" y="0px"
	 width="31.366px" height="31.309px" viewBox="34.762 629.486 31.366 31.309" enable-background="new 34.762 629.486 31.366 31.309"
	 xml:space="preserve">
<g id="linkedin-linkedin">
	<path fill="#FFFFFF" d="M38.678,641.06h5.047v16.224h-5.047V641.06z M41.204,632.995c1.613,0,2.922,1.31,2.922,2.924
		c0,1.614-1.31,2.924-2.922,2.924c-1.619,0-2.925-1.31-2.925-2.924C38.278,634.305,39.584,632.995,41.204,632.995"/>
	<path fill="#FFFFFF" d="M46.889,641.06h4.833v2.218h0.069c0.672-1.276,2.318-2.621,4.771-2.621c5.105,0,6.049,3.359,6.049,7.729
		v8.898H57.57v-7.89c0-1.881-0.032-4.302-2.62-4.302c-2.624,0-3.024,2.05-3.024,4.167v8.024h-5.036V641.06z"/>
</g>
</svg>
