<?xml version="1.0" encoding="utf-8"?>
<!-- Generator: Adobe Illustrator 17.0.0, SVG Export Plug-In . SVG Version: 6.00 Build 0)  -->
<!DOCTYPE svg PUBLIC "-//W3C//DTD SVG 1.1//EN" "http://www.w3.org/Graphics/SVG/1.1/DTD/svg11.dtd">
<svg version="1.1" id="Linkedin" xmlns="http://www.w3.org/2000/svg" xmlns:xlink="http://www.w3.org/1999/xlink" x="0px" y="0px"
	 width="31.366px" height="31.309px" viewBox="0 0 31.366 31.309" enable-background="new 0 0 31.366 31.309" xml:space="preserve">
<g id="linkedin-linkedin">
	<path fill="#222222" d="M3.916,11.575h5.047v16.224H3.916V11.575z M6.441,3.51c1.613,0,2.922,1.31,2.922,2.924
		s-1.31,2.924-2.922,2.924c-1.619,0-2.925-1.31-2.925-2.924S4.822,3.51,6.441,3.51"/>
	<path fill="#222222" d="M12.127,11.575h4.833v2.218h0.07c0.672-1.276,2.318-2.621,4.771-2.621c5.105,0,6.049,3.359,6.049,7.729
		v8.898h-5.042v-7.89c0-1.881-0.032-4.302-2.62-4.302c-2.624,0-3.024,2.05-3.024,4.167v8.024h-5.036V11.575H12.127z"/>
</g>
<path fill="#222222" d="M-75.311,51.307c-7.64,0-13.835,6.194-13.835,13.835c0,6.113,3.964,11.299,9.462,13.128
	c0.691,0.128,0.945-0.3,0.945-0.666c0-0.33-0.013-1.42-0.019-2.576c-3.849,0.837-4.661-1.632-4.661-1.632
	c-0.629-1.599-1.536-2.024-1.536-2.024c-1.255-0.859,0.095-0.841,0.095-0.841c1.389,0.098,2.121,1.426,2.121,1.426
	c1.234,2.115,3.237,1.503,4.026,1.15c0.124-0.894,0.483-1.505,0.878-1.85c-3.073-0.349-6.304-1.536-6.304-6.837
	c0-1.51,0.541-2.745,1.426-3.714c-0.144-0.349-0.618-1.756,0.134-3.662c0,0,1.161-0.372,3.805,1.418
	c1.104-0.307,2.288-0.46,3.463-0.466c1.176,0.005,2.36,0.159,3.466,0.466c2.641-1.79,3.801-1.418,3.801-1.418
	c0.753,1.906,0.279,3.313,0.136,3.662c0.887,0.969,1.424,2.203,1.424,3.714c0,5.314-3.237,6.484-6.317,6.827
	c0.496,0.429,0.938,1.271,0.938,2.562c0,1.851-0.016,3.341-0.016,3.797c0,0.368,0.249,0.8,0.95,0.664
	c5.494-1.831,9.454-7.016,9.454-13.127C-61.475,57.501-67.67,51.307-75.311,51.307z"/>
<g id="icon_3_">
	<path id="mail_3_" fill="#222222" d="M-85.545-24.545l-11.879,9.423l-11.879-9.423H-85.545z M-110.867-23.29l8.369,6.642
		l-8.369,8.371V-23.29z M-109.755-6.655l8.782-8.782l3.468,2.75l0.064,0.077l0.017-0.012l0.008,0.006l0.028-0.036l3.688-2.923
		l8.921,8.921h-24.976V-6.655z M-83.463-8.074l-8.712-8.714l8.712-6.911V-8.074z"/>
</g>
</svg>
