<?xml version="1.0" encoding="utf-8"?>
<!-- Generator: Adobe Illustrator 17.0.0, SVG Export Plug-In . SVG Version: 6.00 Build 0)  -->
<!DOCTYPE svg PUBLIC "-//W3C//DTD SVG 1.1//EN" "http://www.w3.org/Graphics/SVG/1.1/DTD/svg11.dtd">
<svg version="1.1" id="Linkedin" xmlns="http://www.w3.org/2000/svg" xmlns:xlink="http://www.w3.org/1999/xlink" x="0px" y="0px"
	 width="31.366px" height="31.309px" viewBox="34.762 629.486 31.366 31.309" enable-background="new 34.762 629.486 31.366 31.309"
	 xml:space="preserve">
<g id="linkedin-linkedin">
	<path fill="#FFFFFF" d="M-10.794,672.81h5.047v16.224h-5.047V672.81z M-8.269,664.745c1.613,0,2.922,1.31,2.922,2.924
		c0,1.614-1.31,2.924-2.922,2.924c-1.619,0-2.925-1.31-2.925-2.924C-11.194,666.055-9.888,664.745-8.269,664.745"/>
	<path fill="#FFFFFF" d="M-2.583,672.81H2.25v2.218H2.32c0.672-1.276,2.318-2.621,4.771-2.621c5.105,0,6.049,3.359,6.049,7.729
		v8.898H8.098v-7.89c0-1.881-0.032-4.302-2.62-4.302c-2.624,0-3.024,2.05-3.024,4.167v8.024h-5.036V672.81z"/>
</g>
<g id="github-github">
	<path fill="#FFFFFF" d="M116.855,674.611c-7.64,0-13.835,6.194-13.835,13.835c0,6.113,3.964,11.299,9.462,13.128
		c0.691,0.128,0.945-0.3,0.945-0.666c0-0.33-0.013-1.42-0.019-2.576c-3.849,0.837-4.661-1.632-4.661-1.632
		c-0.629-1.599-1.536-2.024-1.536-2.024c-1.255-0.859,0.095-0.841,0.095-0.841c1.389,0.098,2.121,1.426,2.121,1.426
		c1.234,2.115,3.237,1.503,4.026,1.15c0.124-0.894,0.483-1.505,0.878-1.85c-3.073-0.349-6.304-1.536-6.304-6.837
		c0-1.51,0.541-2.745,1.426-3.714c-0.144-0.349-0.618-1.756,0.134-3.662c0,0,1.161-0.372,3.805,1.418
		c1.104-0.307,2.288-0.46,3.463-0.466c1.176,0.005,2.36,0.159,3.466,0.466c2.641-1.79,3.801-1.418,3.801-1.418
		c0.753,1.906,0.279,3.313,0.136,3.662c0.887,0.969,1.424,2.203,1.424,3.714c0,5.314-3.237,6.484-6.317,6.827
		c0.496,0.429,0.938,1.271,0.938,2.562c0,1.851-0.016,3.341-0.016,3.797c0,0.368,0.249,0.8,0.95,0.664
		c5.494-1.831,9.454-7.016,9.454-13.127C130.691,680.805,124.496,674.611,116.855,674.611z"/>
	<path fill="#FFFFFF" d="M108.26,694.475c-0.031,0.069-0.139,0.089-0.238,0.043c-0.1-0.045-0.156-0.139-0.124-0.208
		c0.03-0.071,0.138-0.091,0.238-0.043C108.238,694.312,108.295,694.406,108.26,694.475L108.26,694.475z"/>
	<path fill="#FFFFFF" d="M108.82,695.1c-0.066,0.061-0.195,0.032-0.282-0.064c-0.091-0.096-0.107-0.225-0.041-0.288
		c0.068-0.061,0.193-0.032,0.284,0.064C108.872,694.911,108.889,695.038,108.82,695.1L108.82,695.1z"/>
	<path fill="#FFFFFF" d="M109.366,695.897c-0.085,0.059-0.224,0.004-0.309-0.119c-0.085-0.123-0.085-0.271,0.002-0.33
		c0.086-0.059,0.222-0.006,0.31,0.116C109.453,695.689,109.453,695.837,109.366,695.897L109.366,695.897z"/>
	<path fill="#FFFFFF" d="M110.113,696.667c-0.076,0.084-0.237,0.061-0.355-0.053c-0.121-0.111-0.155-0.27-0.079-0.354
		c0.077-0.084,0.24-0.06,0.359,0.053C110.158,696.425,110.194,696.584,110.113,696.667L110.113,696.667z"/>
	<path fill="#FFFFFF" d="M111.144,697.114c-0.034,0.108-0.189,0.157-0.346,0.111c-0.156-0.048-0.259-0.174-0.227-0.284
		c0.032-0.109,0.189-0.161,0.347-0.111C111.074,696.878,111.177,697.003,111.144,697.114L111.144,697.114z"/>
	<path fill="#FFFFFF" d="M112.277,697.197c0.004,0.114-0.129,0.209-0.294,0.211c-0.165,0.004-0.299-0.089-0.301-0.201
		c0-0.115,0.13-0.208,0.295-0.211C112.142,696.992,112.277,697.083,112.277,697.197L112.277,697.197z"/>
	<path fill="#FFFFFF" d="M113.33,697.017c0.02,0.111-0.095,0.226-0.258,0.256c-0.161,0.029-0.31-0.039-0.33-0.15
		c-0.02-0.114,0.097-0.228,0.257-0.258C113.163,696.838,113.31,696.904,113.33,697.017L113.33,697.017z"/>
</g>
<g id="icon_3_">
	<path id="mail_3_" fill="#FFFFFF" d="M62.065,636.195l-11.879,9.423l-11.879-9.423H62.065z M36.743,637.45l8.369,6.642
		l-8.369,8.371V637.45z M37.855,654.085l8.782-8.782l3.468,2.75l0.064,0.077l0.017-0.012l0.008,0.006l0.028-0.036l3.688-2.923
		l8.921,8.921H37.855z M64.147,652.666l-8.712-8.714l8.712-6.911V652.666z"/>
</g>
</svg>
